<svg width="151" height="58" viewBox="0 0 151 58" fill="none" xmlns="http://www.w3.org/2000/svg">
<path d="M2.64205 46V11.0909H26.983V17.9432H11.0795V25.1023H25.7386V31.9716H11.0795V39.1477H26.983V46H2.64205ZM45.1705 46H32.267V11.0909H45.1534C48.7102 11.0909 51.7727 11.7898 54.3409 13.1875C56.9205 14.5739 58.9091 16.5739 60.3068 19.1875C61.7045 21.7898 62.4034 24.9034 62.4034 28.5284C62.4034 32.1648 61.7045 35.2898 60.3068 37.9034C58.9205 40.517 56.9375 42.5227 54.358 43.9205C51.7784 45.3068 48.7159 46 45.1705 46ZM40.7045 38.8068H44.8466C46.8011 38.8068 48.4545 38.4773 49.8068 37.8182C51.1705 37.1477 52.1989 36.0625 52.892 34.5625C53.5966 33.0511 53.9489 31.0398 53.9489 28.5284C53.9489 26.017 53.5966 24.017 52.892 22.5284C52.1875 21.0284 51.1477 19.9489 49.7727 19.2898C48.4091 18.6193 46.7273 18.2841 44.7273 18.2841H40.7045V38.8068ZM88.4489 11.0909H96.8693V33.608C96.8693 36.2102 96.25 38.4773 95.0114 40.4091C93.7727 42.3295 92.0455 43.8182 89.8295 44.875C87.6136 45.9205 85.0398 46.4432 82.108 46.4432C79.142 46.4432 76.5511 45.9205 74.3352 44.875C72.1193 43.8182 70.3977 42.3295 69.1705 40.4091C67.9432 38.4773 67.3295 36.2102 67.3295 33.608V11.0909H75.767V32.875C75.767 34.0795 76.0284 35.1534 76.5511 36.0966C77.0852 37.0398 77.8295 37.7784 78.7841 38.3125C79.7386 38.8466 80.8466 39.1136 82.108 39.1136C83.3693 39.1136 84.4716 38.8466 85.4148 38.3125C86.3693 37.7784 87.1136 37.0398 87.6477 36.0966C88.1818 35.1534 88.4489 34.0795 88.4489 32.875V11.0909ZM109.709 46H100.641L112.419 11.0909H123.652L135.43 46H126.362L118.163 19.8864H117.891L109.709 46ZM108.499 32.2614H127.453V38.6705H108.499V32.2614ZM147.626 11.0909V46H139.189V11.0909H147.626Z" fill="black"/>
<circle cx="71.75" cy="5.75" r="3.75" fill="#27548A"/>
<path d="M96.5 5.5C96.5 7.57107 94.8211 9.25 92.75 9.25C90.6789 9.25 89 7.57107 89 5.5C89 3.42893 90.6789 1.75 92.75 1.75C94.8211 1.75 96.5 3.42893 96.5 5.5Z" fill="#27548A"/>
<path d="M10.5 5.75C10.5 7.82107 8.82107 9.5 6.75 9.5C4.67893 9.5 3 7.82107 3 5.75C3 3.67893 4.67893 2 6.75 2C8.82107 2 10.5 3.67893 10.5 5.75Z" fill="#27548A"/>
</svg>
